<svg xmlns="http://www.w3.org/2000/svg" x="0px" y="0px" width="100" height="100" viewBox="0,0,256,256">
<g fill="none" fill-rule="evenodd" stroke="#ffffff" stroke-width="2" stroke-linecap="round" stroke-linejoin="round" stroke-miterlimit="10" stroke-dasharray="" stroke-dashoffset="0" font-family="none" font-weight="none" font-size="none" text-anchor="none" style="mix-blend-mode: normal"><g transform="scale(5.12,5.12)"><path d="M25,3c-12.144,0 -21.989,9.85 -21.989,22c0,11.156 8.299,20.37 19.057,21.805v-4.433c0,-1.25 -0.788,-2.373 -1.972,-2.771c-6.207,-2.086 -10.648,-8.022 -10.484,-14.972c0.199,-8.461 7.088,-15.114 15.547,-15.028c8.428,0.085 15.233,6.947 15.233,15.399c0,0.792 -0.061,1.584 -0.181,2.366c-1.885,12.42 -18.053,19.401 -18.142,19.439c0.96,0.128 1.938,0.195 2.931,0.195c12.144,0 21.989,-9.85 21.989,-22c0,-12.15 -9.845,-22 -21.989,-22"></path></g></g>
</svg>